<?xml version="1.0" encoding="UTF-8"?>
<svg version="1.1" xmlns="http://www.w3.org/2000/svg" width="40" height="40">
<path d="M0 0 C3.12578143 1.6720747 5.39281175 3.7856235 7 7 C7.61957854 11.92122384 7.97146521 16.49248526 4.8125 20.5625 C2.00957126 22.99170491 0.64626587 23.79164195 -3 24 C-3 25.65 -3 27.3 -3 29 C-1.35 29 0.3 29 2 29 C2 30.32 2 31.64 2 33 C0.35 33 -1.3 33 -3 33 C-3 34.65 -3 36.3 -3 38 C-4.32 38 -5.64 38 -7 38 C-7 36.35 -7 34.7 -7 33 C-8.65 33 -10.3 33 -12 33 C-12 31.68 -12 30.36 -12 29 C-10.35 29 -8.7 29 -7 29 C-7 27.35 -7 25.7 -7 24 C-7.721875 23.95875 -8.44375 23.9175 -9.1875 23.875 C-12.33868966 22.89462988 -14.04428001 21.57459935 -16.04296875 18.94140625 C-17.95229219 15.06820727 -17.86415841 11.16551359 -17 7 C-13.0954354 -0.1344434 -7.57212079 -1.06682253 0 0 Z M-9.875 7.125 C-11.52854531 9.88090884 -11.39365568 11.85075452 -11 15 C-10 17 -10 17 -8 18 C-4.85075452 18.39365568 -2.88090884 18.52854531 -0.125 16.875 C1.52854531 14.11909116 1.39365568 12.14924548 1 9 C0 7 0 7 -2 6 C-5.14924548 5.60634432 -7.11909116 5.47145469 -9.875 7.125 Z " fill="#E26F6F" transform="translate(25,1)"/>
<path d="M0 0 C4.0743356 0.84881992 5.54405875 2.30225596 8 5.625 C8.625 8.625 8.625 8.625 8 11.625 C5.54405875 14.94774404 4.0743356 16.40118008 0 17.25 C-4.0743356 16.40118008 -5.54405875 14.94774404 -8 11.625 C-8.625 8.625 -8.625 8.625 -8 5.625 C-5.54405875 2.30225596 -4.0743356 0.84881992 0 0 Z M-4.875 3.75 C-6.52854531 6.50590884 -6.39365568 8.47575452 -6 11.625 C-5 13.625 -5 13.625 -3 14.625 C0.14924548 15.01865568 2.11909116 15.15354531 4.875 13.5 C6.52854531 10.74409116 6.39365568 8.77424548 6 5.625 C5 3.625 5 3.625 3 2.625 C-0.14924548 2.23134432 -2.11909116 2.09645469 -4.875 3.75 Z " fill="#CE4747" transform="translate(20,4.375)"/>
</svg>
